<?xml version="1.0" encoding="utf-8"?>
<!-- Generator: Adobe Illustrator 20.1.0, SVG Export Plug-In . SVG Version: 6.00 Build 0)  -->
<svg version="1.1" id="Layer_3" xmlns="http://www.w3.org/2000/svg" xmlns:xlink="http://www.w3.org/1999/xlink" x="0px" y="0px"
	 viewBox="0 0 33.2 35.1" style="enable-background:new 0 0 33.2 35.1;" xml:space="preserve">
<style type="text/css">
	.st0{fill:#B3B3B3;}
</style>
<path class="st0" d="M31.4,24.4c-3.4-1.6-7-2.6-10.7-3.1c0.1-0.9,0.2-1.8,0.4-2.6c0.8-0.5,1.4-1.3,1.5-1.9c0.1-0.8,0.2-1.6,0.3-2.4
	c0.1,0.1,0.3,0.2,0.4,0.2c0.4,0,0.7-0.2,0.8-0.6l0.4-3.8c0-0.4-0.2-0.7-0.6-0.8c-0.1,0-0.3,0-0.4,0.1c0.1-0.7,0.2-1.4,0.2-2.1
	c0.1-1,0.5-3.6-1.3-5.3c-2.7-2.7-8.7-2.7-11.5,0C9,3.7,9.5,6.3,9.5,7.3C9.6,8,9.7,8.7,9.8,9.4C9.6,9.4,9.5,9.3,9.4,9.3
	c-0.4,0-0.7,0.4-0.6,0.8l0.4,3.8c0,0.4,0.4,0.7,0.8,0.6c0.2,0,0.3-0.1,0.4-0.2c0.1,0.8,0.2,1.6,0.3,2.4c0.1,0.6,0.6,1.4,1.5,1.9
	c0.1,0.9,0.2,1.8,0.4,2.6c-3.7,0.4-7.3,1.5-10.7,3.1c-1.1,0.6-1.9,2.1-1.7,3.2c0.1,1.3,0.3,2.6,0.4,4c0.1,1.2,1.1,2.3,2.2,2.5
	c9.3,1.5,18.7,1.5,28,0c1.1-0.2,2.1-1.3,2.2-2.5c0.1-1.3,0.3-2.6,0.4-4C33.3,26.4,32.5,24.9,31.4,24.4z"/>
</svg>
