<?xml version="1.0" encoding="utf-8"?>
<!-- Generator: Adobe Illustrator 20.1.0, SVG Export Plug-In . SVG Version: 6.00 Build 0)  -->
<svg version="1.1" id="Layer_3" xmlns="http://www.w3.org/2000/svg" xmlns:xlink="http://www.w3.org/1999/xlink" x="0px" y="0px"
	 viewBox="0 0 37.7 37.6" style="enable-background:new 0 0 37.7 37.6;" xml:space="preserve">
<style type="text/css">
	.st0{fill:#B3B3B3;}
</style>
<path class="st0" d="M35.6,32.4L24.8,21.6c1.6-2.2,2.6-5,2.6-7.9C27.4,6.1,21.3,0,13.7,0C6.1,0,0,6.1,0,13.7
	c0,7.6,6.1,13.7,13.7,13.7c2.4,0,4.6-0.7,6.5-1.7l11.1,11.1c1.2,1.2,3.1,1.2,4.3,0C36.8,35.5,36.8,33.6,35.6,32.4z M4.6,13.7
	c0-5,4.1-9.1,9.1-9.1c5,0,9.1,4.1,9.1,9.1c0,5-4.1,9.1-9.1,9.1C8.7,22.8,4.6,18.7,4.6,13.7z"/>
</svg>
